# xmcd
#
# Track frame offsets:
#   150
#   14466
#   30565
#   48463
#   64868
#   77562
#   90648
#   107182
#   123034
#   135515
#   153058
#   168354
#   183856
#   202810
#   223725
#   243043
#
# Disc length: 3493 seconds
#
# Revision: 0
# Processed by: cddbd v1.5.2PL0 Copyright (c) Steve Scherf et al.
# Submitted via: GXTranscoder 2.0.1939
#
DISCID=c20da310
DTITLE=Sertanejo - CD 2
DYEAR=1900
DGENRE=Country
TTITLE0=Edson e Hudson - Azul
TTITLE1=Chitãozinho e Xororó - Deixei de ser cawboy
TTITLE2=Daniel - Quando o coração se apaixona
TTITLE3=Rio Negro e Solimões - Agente se entrega
TTITLE4=Sandro e Gustavo - Carminha
TTITLE5=Rio Negro e Solimões - Garagem da vizinha
TTITLE6=Leandro e Leonardo  Hoje é sexta feira
TTITLE7=Chitãozinho e Xororó - É disso que o velho gosta
TTITLE8=Rio Negro e Solimões - Rodopiou
TTITLE9=Edson e Hudson - Fogo do desejo
TTITLE10=Juliano e César - A malvada
TTITLE11=Edson e Hudson - Anjo loiro
TTITLE12=Bruno e Marrone - Agora vai
TTITLE13=Bruno e Marrone - Por um minuto
TTITLE14=Leandro e Leonardo - Eu juro
TTITLE15=Sérgio Reis - Rumo à Goiânia
EXTD=
EXTT0=
EXTT1=
EXTT2=
EXTT3=
EXTT4=
EXTT5=
EXTT6=
EXTT7=
EXTT8=
EXTT9=
EXTT10=
EXTT11=
EXTT12=
EXTT13=
EXTT14=
EXTT15=
PLAYORDER=
